<?xml version="1.0" encoding="utf-8"?>
<!-- Generator: Adobe Illustrator 19.0.0, SVG Export Plug-In . SVG Version: 6.00 Build 0)  -->
<svg version="1.1" id="Layer_1" xmlns="http://www.w3.org/2000/svg" xmlns:xlink="http://www.w3.org/1999/xlink" x="0px" y="0px"
	 viewBox="0 0 441.5 363" style="enable-background:new 0 0 441.5 363;" xml:space="preserve">
<style type="text/css">
	.st0{fill:#97CEB4;}
	.st1{fill:#FFCC5E;}
	.st2{fill:none;stroke:#682161;stroke-width:2;stroke-linejoin:round;stroke-miterlimit:10;}
	.st3{fill:#682161;}
	.st4{fill:none;stroke:#682161;stroke-width:2;stroke-miterlimit:10;}
	.st5{fill:none;stroke:#682161;stroke-width:2;stroke-linecap:round;stroke-miterlimit:10;}
	.st6{fill:#682161;stroke:#682161;stroke-width:2;stroke-miterlimit:10;}
	.st7{fill:none;stroke:#682161;stroke-width:2;stroke-linecap:round;stroke-linejoin:round;stroke-miterlimit:10;}
</style>
<g>
	<g id="XMLID_11_">
		<g>
			<path id="XMLID_26_" class="st0" d="M432.8,114.6c0,0,13,208.6,0,232.2c-7.6,13.8-390.2,18.1-399.9,9.7c0,0,0,0,0,0
				c-22.4-19.7,7.8-249.1,7.8-249.1s7.3,0.1,19.9,0.4l1.9,0c9,0.2,20.4,0.4,33.6,0.6c1.7,0,3.4,0.1,5.2,0.1c0.7,0,1.3,0,2,0
				c2.9,0,5.8,0.1,8.8,0.2c5.6,0.1,11.4,0.2,17.4,0.3c2.1,0,4.1,0.1,6.3,0.1c16.3,0.3,34,0.6,52.3,1l8.3,0.2l8.4,0.2l8.4,0.2
				c1.6,0,3.2,0.1,4.8,0.1l8,0.1c43.5,0.8,87.9,1.6,125.2,2.3l3.1,0c2,0,3.9,0.1,5.9,0.1l3,0c11.7,0.2,22.6,0.4,32.3,0.6
				c0.9,0,1.7,0,2.5,0c8,0.1,15.1,0.3,21.2,0.4c0.7,0,1.4,0,2.1,0c2.1,0,4.1,0.1,5.9,0.1c0.6,0,1.1,0,1.7,0
				C430.3,114.6,431.6,114.6,432.8,114.6z M354.6,333l2.7-201.3l-300.7-5.3l-7.1,213.9L354.6,333z"/>
			<path id="XMLID_25_" class="st1" d="M417.2,95.6c6.2,0.2,21.8,19.2,15.6,19.1c-1.2,0-2.5,0-4-0.1l-1.7,0c-1.8,0-3.8-0.1-5.9-0.1
				l-2.1,0c-6.1-0.1-13.2-0.2-21.2-0.4l-2.5,0c-9.7-0.2-20.5-0.4-32.3-0.6c-1,0-2,0-3,0c-1.9,0-3.9-0.1-5.9-0.1c-1,0-2,0-3.1,0
				c-37.3-0.7-81.7-1.5-125.2-2.3c-2.7,0-5.3-0.1-8-0.1c-1.6,0-3.2-0.1-4.8-0.1c-2.8,0-5.6-0.1-8.4-0.2c-2.8,0-5.6-0.1-8.4-0.2
				c-2.8,0-5.5-0.1-8.3-0.2c-18.3-0.3-35.9-0.7-52.3-1l-6.3-0.1c-6-0.1-11.8-0.2-17.4-0.3l-8.8-0.2c-0.7,0-1.3,0-2,0l-5.2-0.1
				c-13.2-0.2-24.6-0.5-33.6-0.6c-0.7,0-1.3,0-1.9,0c-12.6-0.2-19.9-0.4-19.9-0.4s-21.5-6.9-24.4-10.3c0.2-0.5,0.3-1,0.5-1.5
				C65.7,79.3,324.9,93,417.2,95.6z"/>
			<path id="XMLID_24_" class="st1" d="M427.2,114.5l1.7,0C428.3,114.5,427.8,114.5,427.2,114.5z"/>
			<path id="XMLID_23_" class="st1" d="M419.2,114.4l2.1,0C420.6,114.4,419.9,114.4,419.2,114.4z"/>
			<path id="XMLID_22_" class="st1" d="M395.5,113.9l2.5,0C397.2,114,396.3,113.9,395.5,113.9z"/>
			<path id="XMLID_21_" class="st1" d="M129.6,109l6.3,0.1C133.8,109.1,131.7,109,129.6,109z"/>
			<path id="XMLID_20_" class="st1" d="M103.4,108.5l8.8,0.2C109.2,108.6,106.2,108.6,103.4,108.5z"/>
			<path id="XMLID_19_" class="st1" d="M96.2,108.4l5.2,0.1C99.6,108.5,97.9,108.4,96.2,108.4z"/>
			<path id="XMLID_18_" class="st1" d="M40.7,107.4c0,0-30.2,229.4-7.8,249.1c-0.9-0.7-30.4-21.7-30.6-32.7
				c-0.9-39.6,0-185,14-226.7C19.2,100.5,40.7,107.4,40.7,107.4z"/>
			<path id="XMLID_17_" class="st1" d="M16.8,95.6c-0.2,0.5-0.4,1-0.5,1.5C15.7,96.4,15.8,95.9,16.8,95.6z"/>
		</g>
		<g>
			<polygon id="XMLID_38_" class="st2" points="354.6,333 357.2,131.7 56.5,126.4 49.4,340.3 			"/>
			<path id="XMLID_37_" class="st2" d="M40.7,107.4c0,0-30.2,229.4-7.8,249.1"/>
			<line id="XMLID_36_" class="st2" x1="62.6" y1="107.8" x2="60.6" y2="107.7"/>
			<polyline id="XMLID_35_" class="st2" points="213.3,110.6 204.8,110.4 196.5,110.2 188.2,110.1 			"/>
			<line id="XMLID_34_" class="st2" x1="226" y1="110.8" x2="218" y2="110.6"/>
			<line id="XMLID_33_" class="st2" x1="354.3" y1="113.2" x2="351.2" y2="113.1"/>
			<line id="XMLID_32_" class="st2" x1="363.2" y1="113.3" x2="360.2" y2="113.3"/>
			<path id="XMLID_31_" class="st2" d="M32.9,356.5c9.7,8.4,392.3,4.1,399.9-9.7c13-23.6,0-232.2,0-232.2"/>
			<path id="XMLID_30_" class="st2" d="M16.8,95.6c48.9-16.3,308.2-2.5,400.4,0c6.2,0.2,21.8,19.2,15.6,19.1c-1.2,0-2.5,0-4-0.1
				c-0.5,0-1.1,0-1.7,0c-1.8,0-3.8-0.1-5.9-0.1c-0.7,0-1.4,0-2.1,0c-6.1-0.1-13.2-0.2-21.2-0.4c-0.8,0-1.7,0-2.5,0
				c-9.7-0.2-20.5-0.4-32.3-0.6c-1,0-2,0-3,0c-1.9,0-3.9-0.1-5.9-0.1c-1,0-2,0-3.1,0c-37.3-0.7-81.7-1.5-125.2-2.3
				c-2.7,0-5.3-0.1-8-0.1c-1.6,0-3.2-0.1-4.8-0.1c-2.8,0-5.6-0.1-8.4-0.2c-2.8,0-5.6-0.1-8.4-0.2c-2.8,0-5.5-0.1-8.3-0.2
				c-18.3-0.3-35.9-0.7-52.3-1c-2.1,0-4.2-0.1-6.3-0.1c-6-0.1-11.8-0.2-17.4-0.3c-3-0.1-6-0.1-8.8-0.2c-0.7,0-1.3,0-2,0
				c-1.8,0-3.5-0.1-5.2-0.1c-13.2-0.2-24.6-0.5-33.6-0.6c-0.7,0-1.3,0-1.9,0c-12.6-0.2-19.9-0.4-19.9-0.4s-21.5-6.9-24.4-10.3
				C15.7,96.4,15.8,95.9,16.8,95.6z"/>
			<path id="XMLID_29_" class="st2" d="M32.9,356.5C32.9,356.5,32.9,356.5,32.9,356.5c-0.9-0.7-30.4-21.7-30.6-32.7
				c-0.9-39.6,0-185,14-226.7c0.2-0.5,0.3-1,0.5-1.5"/>
		</g>
	</g>
	<g>
		<g id="XMLID_12_">
			<g>
				<path id="XMLID_9_" class="st3" d="M405.7,154.8c5.5,1.3,9.6,6.2,9.6,12.1c0,6.8-5.5,12.4-12.4,12.4l-2.4-0.2
					c-0.6-0.1-1.1-0.3-1.6-0.4c-1.3-0.5-2.5-1.1-3.6-2c-2.9-2.3-4.7-5.8-4.7-9.7c0-4.7,2.6-8.8,6.5-10.9c1.3-0.7,2.7-1.2,4.3-1.4
					c0.5-0.1,1.1-0.1,1.6-0.1c0.1,0,0.2,0,0.3,0C404,154.6,405.2,154.7,405.7,154.8C405.7,154.8,405.7,154.8,405.7,154.8z"/>
				<path id="XMLID_8_" class="st1" d="M404.8,154.5l0.9,0.3c-0.3-0.1-0.6-0.1-1-0.2c-0.5-0.1-1-0.1-1.5-0.1c-0.1,0-0.2,0-0.3,0
					c-0.5,0-1.1,0-1.6,0.1c-1.5,0.2-3,0.7-4.3,1.4c-3.9,2.1-6.5,6.2-6.5,10.9c0,3.9,1.8,7.4,4.7,9.7c1.1,0.9,2.3,1.5,3.6,2
					c0.5,0.2,1.1,0.3,1.6,0.4l-3.6-0.3l-1.8-0.2h0c-5.8-1-10.2-6.1-10.2-12.2c0-6.8,5.5-12.4,12.4-12.4l1.9,0.2L404.8,154.5z"/>
			</g>
			<g>
				<path id="XMLID_13_" class="st4" d="M403.3,154.5c0.5,0,1,0.1,1.5,0.1c0.3,0,0.6,0.1,1,0.2"/>
				<path id="XMLID_14_" class="st5" d="M405.7,154.8c-0.5-0.1-1.8-0.3-2.5-0.3c-0.1,0-0.2,0-0.3,0c-0.5,0-1.1,0-1.6,0.1
					c-1.5,0.2-3,0.7-4.3,1.4c-3.9,2.1-6.5,6.2-6.5,10.9c0,3.9,1.8,7.4,4.7,9.7c1.1,0.9,2.3,1.5,3.6,2c0.5,0.2,1.1,0.3,1.6,0.4
					l-3.6-0.3l-1.8-0.2h0c-5.8-1-10.2-6.1-10.2-12.2c0-6.8,5.5-12.4,12.4-12.4l1.9,0.2l5.5,0.4L405.7,154.8
					C405.7,154.8,405.7,154.8,405.7,154.8c5.5,1.3,9.7,6.2,9.7,12.1c0,6.8-5.5,12.4-12.4,12.4l-2.4-0.2"/>
			</g>
		</g>
	</g>
	<g>
		<g id="XMLID_10_">
			<g>
				<path id="XMLID_2_" class="st3" d="M406.1,203c6.3,1.5,10.9,7.5,10.9,14.7c0,8.3-6.3,15-14.1,15l-2.8-0.3
					c-0.6-0.1-1.3-0.3-1.9-0.5c-1.5-0.6-2.9-1.4-4.1-2.4c-3.3-2.8-5.3-7-5.3-11.8c0-5.7,3-10.7,7.4-13.2c1.5-0.9,3.1-1.4,4.9-1.7
					c0.6-0.1,1.2-0.1,1.8-0.1c0.1,0,0.2,0,0.3,0c0.8,0.1,2.1,0.3,2.7,0.3C406,202.9,406.1,203,406.1,203z"/>
				<path id="XMLID_1_" class="st1" d="M406.1,203c0,0-0.1,0-0.1,0c-0.3-0.1-0.7-0.1-1-0.2c-0.6-0.1-1.1-0.1-1.7-0.1
					c-0.1,0-0.2,0-0.3,0c-0.6,0-1.2,0-1.8,0.1c-1.7,0.2-3.4,0.8-4.9,1.7c-4.4,2.5-7.4,7.5-7.4,13.2c0,4.8,2.1,9,5.3,11.8
					c1.2,1,2.6,1.9,4.1,2.4c0.6,0.2,1.2,0.4,1.9,0.5l-4-0.4l-2.1-0.2h0c-6.6-1.2-11.6-7.4-11.6-14.8c0-8.3,6.3-15.1,14-15.1l2.2,0.2
					l6.3,0.5L406.1,203z"/>
			</g>
			<g>
				<path id="XMLID_5_" class="st4" d="M403.3,202.6c0.6,0,1.2,0.1,1.7,0.1c0.3,0,0.7,0.1,1,0.2"/>
				<path id="XMLID_4_" class="st4" d="M406.1,203c6.3,1.5,10.9,7.5,10.9,14.7c0,8.3-6.3,15-14.1,15l-2.8-0.3"/>
				<path id="XMLID_3_" class="st4" d="M400.2,232.4l-4-0.4l-2.1-0.2h0c-6.6-1.2-11.6-7.4-11.6-14.8c0-8.3,6.3-15.1,14-15.1l2.2,0.2
					l6.3,0.5l1.1,0.4c0,0-0.1,0-0.1,0c-0.6-0.1-1.9-0.3-2.7-0.3c-0.1,0-0.2,0-0.3,0c-0.6,0-1.2,0-1.8,0.1c-1.7,0.2-3.4,0.8-4.9,1.7
					c-4.4,2.5-7.4,7.5-7.4,13.2c0,4.8,2.1,9,5.3,11.8c1.2,1,2.6,1.9,4.1,2.4C398.9,232.1,399.6,232.2,400.2,232.4z"/>
			</g>
		</g>
	</g>
	<path class="st6" d="M188.1,101.2c-5.6-1.7,8.8-8,22.2-7.7c16.6,0.4,30.4,6.1,24.2,7.7C222.3,104.5,201.1,105.3,188.1,101.2z"/>
	<polyline class="st7" points="214.9,98.2 233.3,20.6 283.6,5.9 	"/>
	<line class="st7" x1="206.7" y1="98.2" x2="119.3" y2="2.9"/>
</g>
</svg>
